<?xml version="1.0" encoding="utf-8"?>
<!-- Generator: Adobe Illustrator 15.0.0, SVG Export Plug-In . SVG Version: 6.00 Build 0)  -->
<!DOCTYPE svg PUBLIC "-//W3C//DTD SVG 1.1//EN" "http://www.w3.org/Graphics/SVG/1.1/DTD/svg11.dtd">
<svg version="1.1" id="Layer_1" xmlns="http://www.w3.org/2000/svg" xmlns:xlink="http://www.w3.org/1999/xlink" x="0px" y="0px"
	 width="800px" height="600px" viewBox="0 0 800 600" enable-background="new 0 0 800 600" xml:space="preserve">
<g>
	<g>
		<path fill="#FFFFFF" d="M489.887,370.482c-2.999-2.573-4.496-5.408-4.496-8.498c0-3.091,0.515-5.761,1.546-8.008
			c-4.028,3.186-6.042,9.46-6.042,18.824c0,4.495,0.937,8.78,2.81,12.854c1.873,4.073,4.822,6.11,8.852,6.11
			c4.026,0,7.163-1.709,9.412-5.128c2.247-3.418,3.558-7.608,3.934-12.573l-5.058,0.281
			C496.534,374.346,492.882,373.06,489.887,370.482z"/>
		<path fill="#FFFFFF" d="M497.19,350.745c-1.497,0-2.67,0.681-3.511,2.037c-0.844,1.358-1.265,2.833-1.265,4.426
			c0,3.466,1.193,5.841,3.582,7.994c2.389,2.155,5.175,2.798,8.359,2.798h1.686c-0.189-4-0.962-8.322-2.317-12.069
			C502.364,352.187,500.188,350.745,497.19,350.745z"/>
		<path fill="#FFFFFF" d="M240.123,266.65c-2.999-2.574-4.496-5.409-4.496-8.498c0-3.092,0.514-5.761,1.545-8.008
			c-4.027,3.185-6.041,9.46-6.041,18.824c0,4.494,0.935,8.78,2.81,12.854c1.873,4.074,4.822,6.111,8.851,6.111
			c4.025,0,7.164-1.709,9.412-5.128c2.247-3.418,3.558-7.608,3.933-12.574l-5.058,0.282
			C246.771,270.514,243.119,269.227,240.123,266.65z"/>
		<path fill="#FFFFFF" d="M564.198,391.134c0,2.295,1.171,3.441,3.512,3.441c1.404,0,2.575-0.562,3.514-1.687
			c2.058-2.81,1.591-6.413-1.405-10.816C566.071,385.819,564.198,388.84,564.198,391.134z"/>
		<path fill="#FFFFFF" d="M247.428,246.913c-1.499,0-2.669,0.682-3.512,2.037c-0.843,1.358-1.265,2.834-1.265,4.424
			c0,3.466,1.195,5.758,3.583,7.912c2.388,2.154,5.174,2.714,8.359,2.714h1.686c-0.189-4-0.961-8.239-2.318-11.984
			C252.602,248.27,250.424,246.913,247.428,246.913z"/>
		<path fill="#FFFFFF" d="M378.491,351.448c-0.752,0-1.125,1.544-1.125,4.636c0,3.09,1.405,6.041,4.215,8.85
			c0.188-1.124,0.281-2.247,0.281-3.371C381.862,354.819,380.739,351.448,378.491,351.448z"/>
		<path fill="#FFFFFF" d="M452.24,351.448c-0.751,0-1.124,1.544-1.124,4.636c0,3.09,1.404,6.041,4.214,8.85
			c0.187-1.124,0.28-2.247,0.28-3.371C455.61,354.819,454.488,351.448,452.24,351.448z"/>
		<path fill="#FFFFFF" d="M421.969,251.337c-2.107-1.355-3.958-2.037-5.549-2.037c-2.624,0-5.41,1.945-8.359,5.831
			c-2.949,3.888-4.426,8.453-4.426,13.696c0,5.246,0.774,9.554,2.319,12.926c1.546,3.371,3.583,5.056,6.11,5.056
			c3.091,0,7.633-7.726,13.628-23.178c0.091-0.749,0.209-2.037,0.351-3.864c0.14-1.826,0.256-3.207,0.35-4.144
			C425.551,254.126,424.075,252.697,421.969,251.337z"/>
		<path fill="#FFFFFF" d="M391.345,43.768c-146.804,0-265.814,119.009-265.814,265.814s119.01,265.814,265.814,265.814
			c146.805,0,265.814-119.01,265.814-265.814S538.149,43.768,391.345,43.768z M192.29,284.982c-0.235,3.279-1.147,6.322-2.739,9.132
			c-1.593,2.81-3.466,4.214-5.62,4.214c-1.217,0-2.552-0.632-4.003-1.896c-1.453-1.265-2.178-2.458-2.178-3.582
			s0.163-1.989,0.492-2.599c0.327-0.608,0.703-1.216,1.124-1.827c0.421-0.606,0.724-1.099,0.913-1.475
			c1.124-2.434,2.153-9.13,3.09-20.089l-5.479,0.704c-0.75,0-1.359-0.258-1.827-0.774c-0.47-0.513-0.702-1.123-0.702-1.825
			s0.141-1.334,0.421-1.896s0.843-1.005,1.686-1.335c0.843-0.326,1.451-0.538,1.827-0.632c1.497-0.373,2.996-0.562,4.495-0.562
			c0.187-2.247,0.444-7.116,0.772-14.608c0.327-7.492,0.819-13.346,1.476-17.56c-0.562-0.092-1.405-0.14-2.529-0.14
			c-6.65,0-9.974,2.997-9.974,8.989l1.405,6.603c0,1.594-0.562,2.905-1.686,3.934c-1.124,1.032-2.437,1.544-3.934,1.544
			c-1.5,0-2.599-0.701-3.302-2.105c-0.702-1.405-1.053-2.951-1.053-4.637c0-5.057,2.178-9.498,6.533-13.572
			c4.355-4.073,9.293-5.985,14.82-5.985h0.843c1.872-7,4.682-10.801,8.429-10.801c1.124,0,1.686,1.436,1.686,4.433
			c0,0.562-0.141,2.778-0.421,6.712c1.405,0.188,3.042,0.405,4.916,0.686c4.401,0.656,8.078,0.976,11.028,0.976
			c2.951,0,5.946-0.495,8.991-1.479c3.042-0.983,5.079-1.477,6.111-1.477c2.621,0,3.933,1.333,3.933,4.002s-1.404,4.684-4.214,6.041
			c-2.809,1.359-6.884,2.036-12.222,2.036c-5.338,0-11.849-1.217-19.526-3.653c-1.124,6.463-1.781,11.333-1.967,14.61
			c-0.189,3.281-0.375,8.148-0.562,14.611c3.934-0.187,9.364-0.282,16.296-0.282c1.216,0,2.27,0.47,3.16,1.406
			c0.889,0.937,1.335,1.921,1.335,2.949c0,1.032-0.33,1.875-0.983,2.529c-0.656,0.656-1.358,0.982-2.107,0.982l-17.841-0.982
			C192.828,275.479,192.522,281.706,192.29,284.982z M243.214,391.624c-6.556,4.777-13.626,7.165-21.212,7.165
			c-7.586,0-13.908-1.382-18.965-4.144s-7.585-6.953-7.585-12.573c0-2.996,1.03-5.712,3.09-8.148c2.06-2.434,5.009-3.651,8.85-3.651
			c1.497,0,2.855,0.42,4.074,1.265c1.216,0.842,1.967,1.967,2.248,3.371c0,1.404-0.842,2.107-2.528,2.107
			c-3.185,0-4.777,1.358-4.777,4.073c0.092,3.09,1.567,5.9,4.426,8.429c2.855,2.528,6.883,3.793,12.081,3.793
			c5.198,0,9.645-1.777,13.346-5.338c3.698-3.559,5.549-7.868,5.549-12.924c0-3.372-1.264-6.414-3.793-9.132
			c-2.528-2.714-5.573-5.033-9.131-6.954c-3.56-1.917-7.143-3.863-10.747-5.83c-3.606-1.965-6.673-4.354-9.201-7.163
			c-2.529-2.81-3.792-5.993-3.792-9.553c0-6.273,2.691-11.285,8.078-15.032c5.384-3.744,11.495-5.619,18.332-5.619
			c4.588,0,8.756,0.938,12.503,2.81c3.744,1.874,5.665,4.729,5.759,8.569c0,2.248-0.562,4.122-1.686,5.619
			c-1.124,1.5-2.647,2.249-4.566,2.249c-1.92,0-2.928-0.703-3.02-2.107l0.702-3.653c-0.375-5.057-3.793-7.586-10.255-7.586
			c-3.747,0-7.002,1.335-9.763,4.004c-2.763,2.67-4.144,5.479-4.144,8.429s1.24,5.527,3.723,7.727
			c2.48,2.201,5.479,4.168,8.991,5.899c3.512,1.734,7.024,3.607,10.536,5.62c3.512,2.015,6.508,4.613,8.991,7.796
			c2.48,3.185,3.723,6.792,3.723,10.816C253.048,380.294,249.768,386.848,243.214,391.624z M239.28,294.254
			c-5.808,0-10.255-2.316-13.345-6.953c-3.09-4.636-4.636-10.066-4.636-16.295c0-6.228,1.849-12.104,5.549-17.631
			c3.699-5.523,8.451-8.288,14.259-8.288c2.621-1.873,5.735-2.809,9.341-2.809c3.604,0,6.954,1.92,10.044,5.759
			c3.09,3.841,4.682,8.852,4.776,15.032c3.745-1.217,6.344-2.27,7.797-3.161c1.451-0.889,2.55-1.567,3.301-2.037l0.007-0.005
			c-0.88-0.706-1.642-1.535-2.255-2.524c-1.124-1.778-1.686-3.792-1.686-6.041c0-2.247,0.467-4.214,1.405-5.899
			c0.935-1.687,2.27-2.529,4.003-2.529c1.732,0,3.323,0.913,4.776,2.739c1.451,1.827,2.178,3.863,2.178,6.111
			c0,2.247-0.657,4.496-1.967,6.743c0.373,0.281,0.983,0.422,1.826,0.422l7.727-0.845c0.749,0,1.405,0.423,1.967,1.265
			c0.562,0.845,0.843,1.734,0.843,2.67c0,0.938-0.305,4.123-0.913,9.552c-0.611,5.434-0.914,9.718-0.914,12.854
			c0,3.14,0.281,4.707,0.843,4.707c1.592-0.092,3.793-2.082,6.603-5.97c2.81-3.886,5.595-8.872,8.359-14.962
			c2.761-6.086,4.447-9.131,5.057-9.131c0.608,0,0.913,0.376,0.913,1.125c0,2.623-1.358,6.79-4.074,12.502
			c-7.399,15.732-13.626,23.6-18.684,23.6c-3.652,0-6.416-0.748-8.288-2.247c-0.657-0.654-0.983-4.728-0.983-12.221
			c0-7.492,0.794-13.908,2.388-19.247c-2.435,0-4.521-0.366-6.296-1.062c-0.726,0.736-1.811,1.629-3.257,2.679
			c-2.904,2.107-6.51,4.003-10.817,5.689c-0.656,7.867-3.139,14.236-7.445,19.104C253.375,291.821,247.239,294.254,239.28,294.254z
			 M593.138,363.529c-5.995,3.841-11.661,8.008-16.998,12.502c2.06,2.998,3.091,6.276,3.091,9.834c0,3.561-1.359,6.603-4.073,9.131
			c-2.719,2.528-6.183,3.793-10.396,3.793s-6.322-2.013-6.322-6.041c0-2.901,3.091-7.351,9.271-13.346
			c-0.468-0.561-1.312-1.475-2.529-2.739s-2.129-2.27-2.737-3.02c-0.237-0.291-0.498-0.628-0.77-0.99
			c-0.267,0.596-0.544,1.2-0.846,1.833c-7.398,15.733-13.626,23.601-18.683,23.601c-3.653,0-6.416-0.749-8.288-2.247
			c-0.657-0.655-0.983-4.729-0.983-12.222c0-7.491,0.793-13.908,2.389-19.246c-2.436,0-4.521-0.367-6.298-1.063
			c-0.726,0.736-1.812,1.63-3.256,2.68c-2.903,2.106-6.511,4.002-10.817,5.688c-0.656,7.867-3.139,14.236-7.445,19.104
			c-4.31,4.872-10.444,7.306-18.404,7.306c-5.806,0-10.253-2.317-13.344-6.953c-3.092-4.637-4.636-10.067-4.636-16.296
			c0-1.693,0.148-3.357,0.423-5c-3.976,2.61-8.553,3.946-13.767,3.946c-1.78,6.837-4.545,12.597-8.287,17.279
			c-3.749,4.684-8.339,7.023-13.769,7.023c-3.185,0-5.808-1.357-7.867-4.074c-2.773-3.521-4.415-8.386-4.97-14.546
			c-6.336,12.403-11.75,18.62-16.242,18.62c-3.65,0-6.415-0.749-8.287-2.247c-0.656-0.655-0.983-2.997-0.983-7.025
			c0-3.892,0.287-10.332,0.857-19.263c-4.072,2.804-8.798,4.232-14.201,4.232c-1.78,6.837-4.544,12.597-8.288,17.279
			c-3.747,4.684-8.337,7.023-13.767,7.023c-3.185,0-5.81-1.357-7.867-4.074c-2.915-3.701-4.588-8.881-5.051-15.502
			c-6.543,13.036-12.118,19.576-16.722,19.576c-3.653,0-6.416-0.749-8.288-2.247c-0.657-0.655-0.983-4.729-0.983-12.222
			c0-7.491,0.794-13.908,2.388-19.246c-1.734,0-3.283-0.197-4.682-0.549c-0.445,2.587-1.731,6.13-3.886,10.663
			c-7.399,15.733-13.626,23.601-18.684,23.601c-3.652,0-6.416-0.749-8.289-2.247c-0.656-0.655-0.983-2.669-0.983-6.041
			c0-3.371,0.141-7.115,0.422-11.238c-2.999,6.37-5.995,11.216-8.991,14.54c-2.999,3.325-6.346,4.986-10.044,4.986
			c-3.7,0-6.159-0.982-7.375-2.949c-1.218-1.967-1.826-5.291-1.826-9.975l0.842-15.733c0-10.021,0.468-15.499,1.406-16.438
			c0.935-0.935,2.598-2.316,4.986-4.144c2.388-1.826,4.12-2.739,5.198-2.739c1.075,0,1.756,0.189,2.037,0.562
			c0.281,0.376,0.421,1.124,0.421,2.247c0,4.027-0.891,8.102-2.669,12.222c-1.405,8.617-2.107,15.688-2.107,21.213
			c0,5.526,0.889,8.288,2.669,8.288c2.153,0,4.682-1.873,7.585-5.619c2.902-3.745,5.806-9.318,8.71-16.717
			c0.843-9.364,1.521-14.421,2.037-15.173c0.514-0.747,1.802-2.107,3.863-4.074c2.059-1.965,3.768-2.949,5.127-2.949
			c1.356,0,2.037,1.78,2.037,5.339c0,0.938-0.26,2.763-0.772,5.479c-0.516,2.717-1.102,4.684-1.757,5.9
			c-1.031,2.623-1.545,10.724-1.545,24.303c0,2.529,0.281,3.792,0.843,3.792c1.592-0.091,3.793-2.082,6.603-5.969
			s5.595-8.873,8.359-14.963c1.429-3.149,2.563-5.467,3.417-6.987c-1.832-0.865-3.28-2.137-4.331-3.829
			c-1.124-1.777-1.686-3.792-1.686-6.041c0-2.247,0.467-4.214,1.405-5.899c0.935-1.687,2.27-2.528,4.004-2.528
			c1.732,0,3.323,0.912,4.776,2.739c1.451,1.826,2.178,3.863,2.178,6.11s-0.657,4.496-1.967,6.743
			c0.373,0.282,0.983,0.422,1.826,0.422l7.727-0.844c0.749,0,1.404,0.422,1.967,1.265c0.561,0.844,0.842,1.734,0.842,2.669
			c0,0.938-0.304,4.123-0.912,9.553c-0.61,5.434-0.913,9.718-0.913,12.854c0,3.139,0.281,4.706,0.842,4.706
			c1.591-0.091,3.793-2.082,6.603-5.969c2.789-3.858,5.554-8.803,8.297-14.833c0.116-2,0.295-4.229,0.551-6.731
			c0.467-4.588,1.007-7.397,1.615-8.429c0.608-1.029,2.108-2.294,4.496-3.792c2.387-1.498,4.05-2.249,4.987-2.249
			c1.405,0,2.105,0.843,2.105,2.529c0,4.775-1.217,9.974-3.651,15.593c0,6.65,0.538,12.341,1.615,17.067
			c1.076,4.731,2.74,7.095,4.987,7.095c3.372,0,6.321-1.756,8.851-5.268c2.528-3.512,4.401-7.796,5.618-12.854
			c-3.37-1.029-5.946-2.832-7.726-5.409c-1.78-2.575-2.669-5.548-2.669-8.92c0-3.371,0.864-6.322,2.599-8.85
			c1.733-2.529,4.236-3.794,7.516-3.794c1.967,0,3.464,1.242,4.494,3.724s1.547,5.267,1.547,8.357c0,3.092-0.234,6.182-0.702,9.272
			c1.404,0.562,2.901,0.843,4.494,0.843c3.017,0,5.935-1.169,8.759-3.469c0.503-6.967,0.954-10.781,1.354-11.422
			c0.468-0.749,1.92-2.153,4.355-4.214c2.435-2.06,4.332-3.092,5.688-3.092c1.357,0,2.037,1.78,2.037,5.339
			c0,0.938-0.258,2.763-0.772,5.479c-0.516,2.717-1.101,4.684-1.755,5.9c-1.219,3.09-1.827,11.192-1.827,24.303
			c0,2.529,0.28,3.792,0.844,3.792c1.59-0.091,3.792-2.082,6.602-5.969c2.578-3.564,5.134-8.064,7.669-13.48
			c0.104-2.325,0.303-4.997,0.617-8.084c0.469-4.588,1.007-7.397,1.617-8.429c0.608-1.029,2.106-2.294,4.494-3.792
			c2.389-1.498,4.05-2.249,4.988-2.249c1.404,0,2.106,0.843,2.106,2.529c0,4.775-1.218,9.974-3.653,15.593
			c0,6.65,0.54,12.341,1.616,17.067c1.077,4.731,2.739,7.095,4.986,7.095c3.373,0,6.323-1.756,8.852-5.268
			c2.529-3.512,4.4-7.796,5.619-12.854c-3.372-1.029-5.948-2.832-7.728-5.409c-1.78-2.575-2.669-5.548-2.669-8.92
			c0-3.371,0.865-6.322,2.601-8.85c1.731-2.529,4.235-3.794,7.516-3.794c1.965,0,3.462,1.242,4.494,3.724
			c1.029,2.481,1.545,5.267,1.545,8.357c0,3.092-0.234,6.182-0.701,9.272c1.405,0.562,2.902,0.843,4.495,0.843
			c3.292,0,6.468-1.384,9.534-4.123c0.895-2.383,2.081-4.709,3.598-6.975c3.7-5.526,8.451-8.289,14.261-8.289
			c2.619-1.871,5.734-2.81,9.34-2.81c3.604,0,6.955,1.921,10.045,5.761c3.09,3.841,4.683,8.85,4.776,15.03
			c3.744-1.217,6.343-2.27,7.797-3.161c1.449-0.889,2.55-1.567,3.302-2.037l0.007-0.004c-0.879-0.705-1.642-1.536-2.256-2.524
			c-1.123-1.777-1.685-3.792-1.685-6.041c0-2.247,0.468-4.214,1.404-5.899c0.935-1.687,2.27-2.528,4.004-2.528
			c1.731,0,3.323,0.912,4.776,2.739c1.45,1.826,2.177,3.863,2.177,6.11s-0.656,4.496-1.966,6.743
			c0.373,0.282,0.983,0.422,1.826,0.422l7.727-0.844c0.749,0,1.404,0.422,1.966,1.265c0.563,0.844,0.844,1.734,0.844,2.669
			c0,0.938-0.306,4.123-0.913,9.553c-0.611,5.434-0.914,9.718-0.914,12.854c0,3.139,0.282,4.706,0.843,4.706
			c1.593-0.091,3.794-2.082,6.603-5.969c2.81-3.887,5.596-8.873,8.359-14.963c0.151-0.334,0.287-0.622,0.432-0.938
			c-0.891-1.87-1.347-3.851-1.347-5.945c0-5.525,1.777-9.995,5.338-13.416c3.559-3.418,7.352-5.127,11.38-5.127
			c2.527,0,4.495,0.68,5.9,2.037c1.404,1.358,2.105,2.739,2.105,4.144c0,3.186-0.75,4.776-2.246,4.776
			c-1.124,0-1.687-0.373-1.687-1.124l0.28-2.107c0-1.685-0.962-2.528-2.879-2.528c-1.921,0-3.771,1.243-5.551,3.723
			c-1.778,2.483-2.667,4.521-2.667,6.111c0,1.594,0.091,2.858,0.28,3.793c0.187,0.937,0.398,1.709,0.632,2.317
			c0.232,0.61,0.633,1.335,1.194,2.178c0.561,0.844,0.984,1.453,1.265,1.826l1.545,1.967c0.653,0.937,1.124,1.545,1.404,1.827
			c4.869-4.026,10.677-8.522,17.42-13.486c0.373-0.282,0.795-0.422,1.265-0.422c0.936,0,1.404,0.516,1.404,1.545
			C594.401,362.172,593.979,362.967,593.138,363.529z M402.511,328.689c0-1.685,0.89-3.136,2.669-4.354
			c1.779-1.217,3.373-1.827,4.777-1.827c2.529,0,3.794,1.454,3.794,4.355c0,2.903-0.752,5.409-2.249,7.516
			c-1.5,2.107-3.605,3.16-6.322,3.16C403.4,337.54,402.511,334.59,402.511,328.689z M601.286,294.254
			c-3.651,0-6.416-0.748-8.287-2.247c-0.658-0.654-0.983-4.728-0.983-12.221c0-7.492,0.794-13.908,2.388-19.247
			c-2.179,0-4.08-0.292-5.73-0.849c-0.528,4.634-3.336,11.134-8.458,19.533c-6.183,10.022-13.815,15.03-22.898,15.03
			c-5.245,0-9.412-1.988-12.502-5.97c-2.497-3.217-3.969-6.791-4.449-10.713c-0.334,0.568-0.656,1.102-0.959,1.582
			c-1.454,2.295-3.302,4.706-5.549,7.233c-4.685,5.246-10.536,7.867-17.56,7.867c-5.338,0-9.392-1.896-12.153-5.688
			c-2.508-3.444-3.864-7.104-4.095-10.974c-5.897,11.093-10.972,16.662-15.219,16.662c-3.651,0-6.414-0.748-8.287-2.247
			c-0.656-0.654-0.984-2.364-0.984-5.128c0-2.762,0.256-7.256,0.772-13.485c0.515-6.228,0.773-10.888,0.773-13.979
			c0-3.09-0.541-4.635-1.614-4.635c-1.08,0-3.913,3.209-8.5,9.623c-4.59,6.415-7.023,10.514-7.305,12.291
			c-0.562,3.279-0.843,6.37-0.843,9.272l0.14,4.354c0,2.623-0.751,3.934-2.248,3.934c-2.246,0-4.402-0.305-6.462-0.912
			c-2.061-0.608-3.091-1.451-3.091-2.529c0-1.075,0.26-4.775,0.772-11.097c0.02-0.24,0.036-0.463,0.056-0.698
			c-5.573,10.15-10.391,15.236-14.453,15.236c-3.651,0-6.416-0.748-8.289-2.247c-0.656-0.654-0.982-2.318-0.982-4.987
			s0.092-6.251,0.281-10.747c-2.437,6.09-4.846,10.606-7.234,13.557c-2.39,2.95-5.458,4.425-9.201,4.425
			c-3.748,0-7.024-1.756-9.835-5.268c-2.071-2.589-3.373-6.281-3.918-11.057c-8.447,11.346-19.452,17.027-33.026,17.027
			c-4.027,0-7.725-0.937-11.097-2.81s-6.041-4.261-8.008-7.165c-4.027-5.899-6.041-12.081-6.041-18.543
			c0-16.295,4.236-29.429,12.714-39.404c8.474-9.974,18.519-14.961,30.133-14.961c4.4,0,8.008,1.289,10.816,3.863
			c2.81,2.577,4.215,5.83,4.215,9.763c0,3.935-0.984,7.586-2.95,10.958c-1.968,3.372-4.333,5.057-7.095,5.057
			c-2.765,0-4.146-0.747-4.146-2.247c0-1.685,0.914-3.604,2.741-5.759c1.825-2.153,2.739-4.307,2.739-6.463
			c0-6.649-3.536-9.974-10.607-9.974c-7.07,0-13.463,4.73-19.176,14.188c-5.713,9.459-8.568,19.2-8.568,29.219
			c0,6.933,1.967,13.089,5.9,18.474c3.933,5.386,9.459,8.078,16.577,8.078c8.429,0,16.528-5.62,24.303-16.858
			c0.112-0.159,0.243-0.368,0.372-0.569c0.439-6.478,2.533-12.282,6.299-17.412c4.26-5.805,9.854-8.71,16.787-8.71
			c2.996,0,6.367,1.967,10.114,5.9c0.749-1.03,2.082-2.27,4.003-3.723c1.92-1.449,3.559-2.177,4.917-2.177
			c1.357,0,2.037,1.781,2.037,5.338c0,0.937-0.26,2.765-0.772,5.479c-0.516,2.718-1.102,4.684-1.757,5.901
			c-0.842,2.154-1.264,9.788-1.264,22.897c0,2.529,0.281,3.793,0.844,3.793c1.591-0.092,3.793-2.082,6.603-5.97
			c2.224-3.074,4.567-6.852,6.763-11.308c0.074-1.681,0.25-3.136,0.25-4.356v-8.288c0-4.495,0.332-7.211,1.27-8.148
			c0.936-0.935,2.532-2.293,4.919-4.074c2.389-1.777,4.087-2.669,5.165-2.669c1.075,0,1.735,0.188,2.018,0.562
			c0.281,0.374,0.416,1.078,0.416,2.107c0,4.965-0.944,9.646-2.815,14.048c-0.472,5.339-0.705,9.04-0.705,11.098
			c0.373-0.562,2.339-3.744,5.898-9.553c3.558-5.805,6.577-10.066,9.062-12.783c2.48-2.714,4.706-4.074,6.671-4.074
			c1.969,0,3.724,0.656,5.269,1.967c1.546,1.314,2.318,2.951,2.318,4.917c0,4.123-0.445,10.185-1.336,18.192
			c-0.89,8.008-1.333,13.065-1.333,15.173s0.28,3.16,0.843,3.16c1.591-0.092,3.792-2.082,6.602-5.97
			c2.426-3.354,4.834-7.533,7.225-12.53c0.893-6.907,3.045-12.43,6.472-16.549c4.636-5.571,10.511-8.359,17.63-8.359
			c2.995,0,5.359,0.772,7.095,2.317c1.731,1.546,2.598,3.301,2.598,5.27c0,3.652-0.656,6.369-1.966,8.146
			c-1.313,1.78-2.904,2.669-4.777,2.669c-1.593,0-2.389-0.889-2.389-2.669l1.124-7.164c0-1.03-0.328-1.967-0.982-2.811
			c-0.656-0.841-1.499-1.263-2.529-1.263c-3.465,0-6.461,2.599-8.99,7.796c-2.528,5.198-3.793,10.185-3.793,14.962
			c0,4.776,0.984,8.639,2.949,11.59c1.969,2.949,4.378,4.424,7.235,4.424c2.856,0,5.41-0.653,7.655-1.967
			c2.249-1.31,4.307-3.182,6.183-5.619c2.352-3.077,4.477-6.438,6.425-10.021c0.65-7.568,2.705-13.519,6.217-17.793
			c4.307-5.245,9.881-7.868,16.718-7.868c3.183,0,5.805,0.868,7.866,2.599c2.059,1.734,3.091,4.098,3.091,7.094
			c0,5.62-2.366,10.326-7.094,14.118c-4.729,3.794-10.516,5.784-17.35,5.971c0.373,3.653,1.615,6.813,3.724,9.482
			c2.105,2.669,4.564,4.004,7.375,4.004c2.81,0,5.337-0.653,7.584-1.967c2.249-1.31,4.307-3.182,6.183-5.619
			c3.934-5.148,7.304-11.003,10.113-17.56c0.611-1.379,1.11-2.426,1.503-3.178c-1.361-0.827-2.479-1.916-3.328-3.285
			c-1.124-1.778-1.686-3.792-1.686-6.041c0-2.247,0.467-4.214,1.405-5.899c0.934-1.687,2.27-2.529,4.002-2.529
			s3.324,0.913,4.777,2.739c1.45,1.827,2.178,3.863,2.178,6.111c0,2.247-0.656,4.496-1.967,6.743
			c0.372,0.281,0.982,0.422,1.826,0.422l7.726-0.845c0.749,0,1.405,0.423,1.967,1.265c0.562,0.845,0.843,1.734,0.843,2.67
			c0,0.938-0.306,4.123-0.912,9.552c-0.61,5.434-0.914,9.718-0.914,12.854c0,3.14,0.281,4.707,0.844,4.707
			c1.591-0.092,3.793-2.082,6.603-5.97c2.81-3.886,5.595-8.872,8.358-14.962c2.76-6.086,4.446-9.131,5.057-9.131
			c0.608,0,0.912,0.376,0.912,1.125c0,2.623-1.356,6.79-4.073,12.502C612.57,286.387,606.343,294.254,601.286,294.254z"/>
		<path fill="#FFFFFF" d="M565.885,254.499c0-4.214-1.356-6.321-4.073-6.321c-3.278,0-6.04,2.271-8.288,6.813
			c-2.247,4.543-3.466,9.577-3.652,15.101c5.525-0.936,9.575-2.716,12.151-5.339C564.597,262.134,565.885,258.713,565.885,254.499z"
			/>
	</g>
	<g>
		<path fill="#1B1464" d="M287.674,467.146c-0.912,0.576-1.872,1.104-2.88,1.536c-2.208,0.912-4.561,1.393-6.96,1.393
			c-2.4,0-4.752-0.48-6.913-1.393s-4.033-2.208-5.665-3.84c-1.632-1.632-2.928-3.504-3.84-5.664s-1.392-4.513-1.392-6.913
			s0.48-4.752,1.392-6.961c0.912-2.112,2.208-4.032,3.84-5.664c1.632-1.632,3.504-2.929,5.665-3.792
			c2.16-0.961,4.512-1.393,6.913-1.393c2.4,0,4.752,0.432,6.96,1.393c0.24,0.096,0.528,0.239,0.768,0.336v6.576
			c-2.16-1.776-4.849-2.736-7.729-2.736c-3.265,0-6.337,1.248-8.641,3.601c-2.304,2.304-3.6,5.376-3.6,8.641s1.296,6.337,3.6,8.641
			c2.304,2.305,5.376,3.601,8.641,3.601c3.264,0,6.336-1.296,8.641-3.601c0.432-0.432,0.816-0.864,1.2-1.344V467.146z"/>
		<path fill="#1B1464" d="M314.457,470.074h-14.93h-5.521v-35.619h5.569v30.579h14.881V470.074z"/>
		<path fill="#1B1464" d="M318.534,470.074v-35.619h5.569v35.619H318.534z"/>
		<path fill="#1B1464" d="M357.656,467.146c-0.912,0.576-1.873,1.104-2.88,1.536c-2.208,0.912-4.561,1.393-6.96,1.393
			c-2.4,0-4.752-0.48-6.913-1.393s-4.033-2.208-5.665-3.84c-1.632-1.632-2.928-3.504-3.84-5.664s-1.392-4.513-1.392-6.913
			s0.48-4.752,1.392-6.961c0.912-2.112,2.208-4.032,3.84-5.664c1.632-1.632,3.504-2.929,5.665-3.792
			c2.16-0.961,4.512-1.393,6.913-1.393c2.4,0,4.752,0.432,6.96,1.393c0.24,0.096,0.528,0.239,0.768,0.336v6.576
			c-2.16-1.776-4.849-2.736-7.729-2.736c-3.265,0-6.337,1.248-8.641,3.601c-2.304,2.304-3.6,5.376-3.6,8.641s1.296,6.337,3.6,8.641
			c2.304,2.305,5.376,3.601,8.641,3.601c3.264,0,6.336-1.296,8.641-3.601c0.432-0.432,0.816-0.864,1.2-1.344V467.146z"/>
		<path fill="#1B1464" d="M383.671,470.074l-14.113-16.129v16.129h-5.569v-35.619h5.569v14.689l11.425-14.689h7.009l-13.058,17.138
			l15.697,18.481H383.671z"/>
		<path fill="#1B1464" d="M435.078,470.074h-5.568v-15.361h-14.209v15.361h-5.568v-35.619h5.568v15.218h14.209v-15.218h5.568
			V470.074z"/>
		<path fill="#1B1464" d="M448.085,448.952h13.009v5.041h-13.009v11.041h15.793v5.04h-15.841h-5.521v-35.619h5.521h15.841v4.992
			h-15.793V448.952z"/>
		<path fill="#1B1464" d="M495.365,470.074h-6.288l-8.978-12.049h-4.08v12.049h-5.568v-35.619h4.705h5.855
			c4.705,0,7.441,1.92,8.881,3.553c1.873,2.063,2.881,4.944,2.881,8.256c0,3.265-1.008,6.145-2.881,8.209
			c-0.863,0.96-2.207,2.064-4.128,2.736L495.365,470.074z M481.012,453.033c2.305,0,4.033-0.673,5.137-1.921
			c1.344-1.439,1.584-3.456,1.584-4.849c0-1.439-0.24-3.456-1.584-4.896c-1.104-1.249-2.832-1.873-5.137-1.873h-4.992v13.538
			H481.012z"/>
		<path fill="#1B1464" d="M505.301,448.952h13.008v5.041h-13.008v11.041h15.793v5.04h-15.842h-5.521v-35.619h5.521h15.842v4.992
			h-15.793V448.952z"/>
	</g>
</g>
</svg>
