<?xml version="1.0" encoding="utf-8"?>
<!-- Generator: Adobe Illustrator 15.0.0, SVG Export Plug-In . SVG Version: 6.00 Build 0)  -->
<!DOCTYPE svg PUBLIC "-//W3C//DTD SVG 1.1//EN" "http://www.w3.org/Graphics/SVG/1.1/DTD/svg11.dtd">
<svg version="1.1" id="Layer_1" xmlns="http://www.w3.org/2000/svg" xmlns:xlink="http://www.w3.org/1999/xlink" x="0px" y="0px"
	 width="422.449px" height="168.367px" viewBox="0 0 422.449 168.367" enable-background="new 0 0 422.449 168.367"
	 xml:space="preserve">
<g>
	<g>
		<g>
			<path fill="#2A4273" d="M70.461,113.984c-12.947,0-24.825-3.717-33.444-10.465c-9.545-7.475-14.589-18.215-14.589-31.061
				c0-28.859,24.637-43.96,48.973-43.96c10.306,0,19.563,2.042,27.523,6.068V56.86h-2.36c-3.362-15.524-12.659-24.067-26.221-24.067
				c-20.692,0-30.116,19.429-30.116,37.477c0,18.958,11.918,39.421,31.174,39.421c16.854,0,24.816-14.01,29.84-26.453l2.371,0.814
				l-7.17,24.639C88.325,112.251,79.822,113.984,70.461,113.984z"/>
			<path fill="#2A4273" d="M104.421,111.917v-1.773c8.956-2.459,8.956-3.387,8.956-12.893V47.178c0-6.992,0-7.265-4.091-10.103
				c-0.805-0.556-1.792-1.241-2.982-2.133v-1.194l18.353-7.944l1.797,1.387l-0.463,14.252v55.809
				c0,10.025,0.163,10.264,8.803,12.836l0.156,0.043v1.787H104.421z"/>
			<path fill="#2A4273" d="M173.966,113.623c-4.318,0-6.319-1.678-7.381-6.188l-0.228-0.957l-0.792,0.586
				c-4.651,3.457-9.375,6.559-15.998,6.559c-7,0-12.082-5.402-12.082-12.846c0-1.994,0.3-3.896,0.942-5.963l27.464-11.965v-0.424
				c0-9.043,0-18.395-10.903-18.395c-2.021,0-3.474,0.477-4.442,1.457c-1.573,1.589-1.546,4.172-1.515,6.908
				c0.004,0.382,0.009,0.768,0.009,1.156v1.463l-9.304,0.686c-1.67-0.002-2.251-0.205-2.251-0.812
				c0-3.987,16.437-17.098,27.053-17.098c12.381,0,13.969,13.294,13.969,24.875v14.709c0,7.695,1.62,8.236,8.45,10.512l1.213,0.408
				v1.693c-1.47,0.359-3.088,0.887-4.788,1.441C180.072,112.507,176.651,113.623,173.966,113.623z M151.697,92.333l-0.055,0.307
				c-0.09,0.482-0.184,0.953-0.277,1.414c-0.289,1.41-0.56,2.74-0.56,4.17c0,6.039,3.018,9.643,8.073,9.643
				c2.861,0,4.773-1.025,6.762-2.566l0.251-0.197V84.615L151.697,92.333z"/>
			<path fill="#2A4273" d="M229.482,105.066l-1.623,0.984c-5.843,3.549-12.463,7.572-19.349,7.572c-5.262,0-9.746-2.326-12.3-6.383
				c-2.536-3.83-2.47-8.758-2.396-13.521c0.011-0.775,0.024-1.543,0.024-2.299V76.347c0-0.829,0.007-1.605,0.017-2.332
				c0.078-7.246,0.11-10.045-9.213-11.476v-1.765l21.806-1.949v29.917c0,8.34,1.372,17.91,12.08,17.91
				c4.208,0,7.511-1.414,10.534-2.857l0.37-0.176v-27.6c0-10.503-0.31-11.682-10.968-13.468v-1.773l23.583-1.957v36.974
				c0,0.418-0.011,0.857-0.018,1.307c-0.047,2.982-0.101,6.359,1.701,8.191c0.819,0.832,1.943,1.254,3.337,1.254
				c0.162,0,0.33-0.004,0.499-0.018l4.971-0.32v1.959l-23.422,5.635L229.482,105.066z"/>
			<path fill="#2A4273" d="M294.276,103.246l-1.198,1.357c-5.297,5.984-11.438,9.02-18.257,9.02
				c-12.643,0-22.922-11.434-22.922-25.486c0-14.352,10.674-30.346,25.988-30.346c5.077,0,9.82,0.767,14.004,1.443l2.32,0.371
				V47.178c0-6.997,0-7.271-4.228-10.108c-0.83-0.557-1.85-1.241-3.08-2.134v-1.188l18.334-7.936l1.589,1.364l-0.003,66.78
				c-0.004,5.463-0.004,8.473,0.802,10.371c0.933,2.207,2.857,2.639,5.863,2.639h0.004c1.185,0,2.556-0.068,4.25-0.162l0.211,1.73
				l-24.064,5.283L294.276,103.246z M278.829,61.601c-9.988,0-13.612,11.872-13.612,19.852c0,11.863,6.381,24.471,18.211,24.471
				c4.96,0,7.635-1.625,10.582-4.432l0.202-0.191V81.21C294.212,71.465,288.93,61.601,278.829,61.601z"/>
			<path fill="#2A4273" d="M316.91,111.917v-1.773c8.962-2.459,8.962-3.387,8.962-12.893V81.126c0-6.989,0-7.265-4.089-10.1
				c-0.806-0.558-1.793-1.24-2.985-2.134v-1.195l18.355-10.319l1.792,1.387l-0.463,16.632v21.855
				c0,10.025,0.165,10.266,8.915,12.836l0.158,0.047v1.783H316.91z"/>
			<path fill="#2A4273" d="M386.104,113.623c-4.32,0-6.317-1.678-7.383-6.188l-0.225-0.957l-0.793,0.586
				c-4.649,3.457-9.374,6.559-15.996,6.559c-7.001,0-12.082-5.402-12.082-12.846c0-1.994,0.3-3.896,0.939-5.963l27.468-11.965
				v-0.424c0-9.043,0-18.395-10.902-18.395c-2.021,0-3.474,0.477-4.447,1.458c-1.575,1.591-1.543,4.175-1.515,6.911
				c0.004,0.379,0.01,0.766,0.01,1.152v1.463l-9.306,0.686c-1.666-0.002-2.247-0.205-2.247-0.812
				c0-3.987,16.437-17.098,27.051-17.098c12.381,0,13.971,13.294,13.971,24.875v14.709c0,7.695,1.62,8.236,8.45,10.512l1.214,0.408
				v1.693c-1.47,0.359-3.09,0.887-4.791,1.441C392.215,112.507,388.794,113.623,386.104,113.623z M363.837,92.333l-0.055,0.307
				c-0.09,0.482-0.188,0.953-0.277,1.414c-0.288,1.41-0.558,2.74-0.558,4.17c0,6.039,3.013,9.643,8.072,9.643
				c2.858,0,4.771-1.025,6.764-2.566l0.25-0.193V84.615L363.837,92.333z"/>
		</g>
	</g>
</g>
<g>
	<path fill="#2A4273" d="M38.367,140.464c0,1.764,0,3.141,0.091,3.912c0.054,0.533,0.164,0.936,0.709,1.01
		c0.255,0.035,0.654,0.074,0.909,0.074c0.236,0,0.31,0.055,0.31,0.146c0,0.129-0.128,0.184-0.4,0.184
		c-1.146,0-2.291-0.055-2.764-0.055c-0.474,0-1.619,0.055-2.31,0.055c-0.254,0-0.382-0.037-0.382-0.184
		c0-0.092,0.073-0.146,0.272-0.146c0.272,0,0.491-0.039,0.655-0.074c0.363-0.074,0.454-0.477,0.527-1.01
		c0.091-0.771,0.091-2.148,0.091-3.912v-3.232c0-2.791,0-3.307-0.037-3.895c-0.036-0.623-0.182-0.918-0.781-1.047
		c-0.146-0.035-0.455-0.055-0.71-0.055c-0.182,0-0.309-0.035-0.309-0.146c0-0.146,0.146-0.184,0.419-0.184
		c0.473,0,0.999,0.02,1.472,0.02c0.474,0.018,0.892,0.035,1.146,0.035c0.691,0,4.383,0,4.801-0.018
		c0.346-0.018,0.563-0.018,0.745-0.074c0.109-0.035,0.2-0.111,0.291-0.111c0.072,0,0.127,0.076,0.127,0.168
		c0,0.129-0.091,0.348-0.146,0.826c-0.018,0.184-0.054,1.266-0.091,1.486c-0.018,0.148-0.054,0.258-0.182,0.258
		c-0.127,0-0.164-0.092-0.182-0.295c0-0.146,0-0.439-0.109-0.697c-0.127-0.258-0.509-0.533-1.2-0.551l-2.8-0.055
		c-0.109,0-0.163,0.055-0.163,0.258v4.59c0,0.111,0.018,0.166,0.127,0.166l2.327-0.02c0.31,0,0.563,0,0.818-0.018
		c0.346-0.018,0.601-0.092,0.782-0.33c0.091-0.109,0.127-0.186,0.235-0.186c0.073,0,0.11,0.057,0.11,0.168
		c0,0.109-0.092,0.568-0.146,1.139c-0.036,0.367-0.072,1.211-0.072,1.34c0,0.164,0,0.348-0.182,0.348
		c-0.109,0-0.146-0.127-0.146-0.256s-0.036-0.35-0.109-0.57c-0.091-0.258-0.363-0.588-0.927-0.66
		c-0.455-0.057-2.382-0.057-2.691-0.057c-0.091,0-0.127,0.037-0.127,0.166V140.464z"/>
	<path fill="#2A4273" d="M46.934,138.5c0-2.371,0-2.811-0.019-3.305c-0.036-0.533-0.182-0.699-0.69-0.848
		c-0.128-0.035-0.4-0.053-0.637-0.053c-0.163,0-0.272-0.057-0.272-0.166c0-0.111,0.127-0.146,0.363-0.146
		c0.837,0,1.855,0.035,2.182,0.035c0.546,0,2.001-0.035,2.491-0.035c1.019,0,2.182,0.092,3.037,0.66
		c0.454,0.312,1.127,1.104,1.127,2.148c0,1.158-0.655,2.186-2.218,3.453c1.418,1.764,2.545,3.178,3.509,4.15
		c0.891,0.9,1.454,0.975,1.709,1.027c0.164,0.039,0.255,0.039,0.382,0.039c0.128,0,0.2,0.09,0.2,0.164
		c0,0.129-0.109,0.166-0.31,0.166h-1.526c-0.892,0-1.328-0.092-1.746-0.312c-0.691-0.35-1.291-1.084-2.182-2.297
		c-0.637-0.844-1.31-1.891-1.51-2.131c-0.091-0.09-0.182-0.109-0.29-0.109l-1.438-0.035c-0.072,0-0.127,0.035-0.127,0.127v0.221
		c0,1.451,0.019,2.664,0.091,3.324c0.055,0.461,0.127,0.754,0.618,0.826c0.237,0.037,0.582,0.057,0.782,0.057
		c0.127,0,0.2,0.09,0.2,0.164c0,0.111-0.127,0.166-0.328,0.166c-0.927,0-2.254-0.055-2.49-0.055c-0.309,0-1.327,0.055-1.964,0.055
		c-0.2,0-0.31-0.055-0.31-0.166c0-0.074,0.055-0.164,0.255-0.164c0.236,0,0.418-0.02,0.564-0.057
		c0.326-0.072,0.417-0.365,0.472-0.826c0.073-0.66,0.073-1.891,0.073-3.324V138.5z M48.97,139.71c0,0.166,0.036,0.221,0.146,0.277
		c0.346,0.109,0.818,0.146,1.218,0.146c0.637,0,0.855-0.057,1.128-0.258c0.491-0.35,1.036-1.029,1.036-2.314
		c0-2.203-1.491-2.773-2.437-2.773c-0.399,0-0.781,0.02-0.945,0.057c-0.109,0.035-0.146,0.092-0.146,0.221V139.71z"/>
	<path fill="#2A4273" d="M57.573,139.876c0-2.664,1.854-6.115,6.709-6.115c4.036,0,6.546,2.258,6.546,5.84
		c0,3.58-2.582,6.391-6.709,6.391C59.464,145.992,57.573,142.65,57.573,139.876z M68.446,140.169c0-3.451-2.055-5.582-4.637-5.582
		c-1.782,0-3.873,0.955-3.873,4.811c0,3.215,1.818,5.75,4.837,5.75C65.9,145.148,68.446,144.615,68.446,140.169z"/>
	<path fill="#2A4273" d="M74.869,134.037c0.036-0.258,0.182-0.404,0.309-0.404c0.163,0,0.273,0.074,0.491,0.496l4.291,8.705
		l4.291-8.816c0.127-0.256,0.272-0.385,0.418-0.385c0.128,0,0.31,0.164,0.363,0.496l1.455,9.641
		c0.146,0.973,0.291,1.396,0.782,1.543c0.454,0.129,0.709,0.148,0.908,0.148c0.146,0,0.255,0.055,0.255,0.146
		c0,0.129-0.182,0.184-0.418,0.184c-0.4,0-2.673-0.072-3.31-0.111c-0.382-0.018-0.473-0.09-0.473-0.182
		c0-0.076,0.073-0.129,0.182-0.166c0.091-0.037,0.128-0.221,0.073-0.662l-0.891-6.758h-0.056l-3.436,6.979
		c-0.364,0.734-0.455,0.881-0.637,0.881c-0.2,0-0.382-0.311-0.637-0.789c-0.381-0.717-1.654-3.104-1.836-3.545
		c-0.127-0.293-1.073-2.258-1.601-3.342h-0.055l-0.763,6.096c-0.037,0.277-0.055,0.479-0.055,0.736c0,0.293,0.218,0.404,0.491,0.459
		c0.272,0.055,0.418,0.074,0.563,0.074s0.254,0.072,0.254,0.146c0,0.146-0.146,0.184-0.381,0.184c-0.674,0-1.4-0.055-1.691-0.055
		c-0.31,0-1.073,0.055-1.582,0.055c-0.163,0-0.291-0.037-0.291-0.184c0-0.074,0.091-0.146,0.255-0.146c0.127,0,0.236,0,0.491-0.039
		c0.436-0.053,0.581-0.68,0.654-1.191L74.869,134.037z"/>
	<path fill="#2A4273" d="M96.966,144.044c-1.782-1.578-2.255-3.635-2.255-5.416c0-1.25,0.382-3.416,2.127-5.033
		c1.31-1.211,3.037-1.947,5.746-1.947c1.127,0,1.8,0.074,2.637,0.186c0.69,0.092,1.272,0.256,1.818,0.311
		c0.199,0.02,0.272,0.111,0.272,0.221c0,0.146-0.055,0.369-0.091,1.01c-0.037,0.607-0.019,1.617-0.055,1.984
		c-0.019,0.275-0.055,0.422-0.218,0.422c-0.146,0-0.183-0.146-0.183-0.404c-0.019-0.568-0.254-1.211-0.709-1.689
		c-0.6-0.643-2.018-1.139-3.69-1.139c-1.582,0-2.619,0.404-3.419,1.139c-1.327,1.23-1.673,2.975-1.673,4.758
		c0,4.369,3.291,6.537,5.728,6.537c1.618,0,2.6-0.184,3.328-1.027c0.309-0.35,0.545-0.883,0.618-1.213
		c0.054-0.293,0.091-0.367,0.235-0.367c0.128,0,0.164,0.129,0.164,0.275c0,0.221-0.218,1.818-0.399,2.441
		c-0.091,0.312-0.164,0.406-0.474,0.533c-0.727,0.295-2.109,0.424-3.272,0.424C100.711,146.048,98.62,145.498,96.966,144.044z"/>
	<path fill="#2A4273" d="M119.078,139.068c0.037,0,0.091-0.018,0.091-0.109v-0.33c0-2.371-0.018-2.939-0.036-3.434
		c-0.036-0.533-0.182-0.699-0.69-0.848c-0.128-0.035-0.4-0.053-0.618-0.053c-0.183,0-0.273-0.057-0.273-0.166
		c0-0.111,0.109-0.146,0.346-0.146c0.854,0,1.981,0.035,2.4,0.035c0.382,0,1.436-0.035,2.054-0.035c0.237,0,0.346,0.035,0.346,0.146
		c0,0.109-0.108,0.166-0.291,0.166c-0.127,0-0.272,0.018-0.472,0.053c-0.419,0.074-0.546,0.295-0.582,0.848
		c-0.036,0.494-0.036,0.934-0.036,3.305v2.754c0,1.434,0,2.664,0.072,3.344c0.055,0.441,0.146,0.734,0.637,0.807
		c0.218,0.037,0.563,0.057,0.817,0.057c0.164,0,0.255,0.09,0.255,0.164c0,0.111-0.128,0.166-0.327,0.166
		c-1.037,0-2.091-0.055-2.527-0.055c-0.364,0-1.491,0.055-2.109,0.055c-0.218,0-0.345-0.055-0.345-0.166
		c0-0.074,0.072-0.164,0.254-0.164c0.254,0,0.437-0.02,0.582-0.057c0.327-0.072,0.418-0.365,0.473-0.826
		c0.072-0.66,0.072-1.854,0.072-3.287v-1.193c0-0.057-0.054-0.092-0.091-0.092h-6.036c-0.055,0-0.109,0.018-0.109,0.092v1.193
		c0,1.434,0.019,2.627,0.091,3.307c0.055,0.441,0.146,0.734,0.618,0.807c0.219,0.037,0.582,0.057,0.818,0.057
		c0.182,0,0.255,0.09,0.255,0.164c0,0.111-0.128,0.166-0.327,0.166c-1.037,0-2.146-0.055-2.601-0.055
		c-0.363,0-1.418,0.055-2.055,0.055c-0.2,0-0.309-0.055-0.309-0.166c0-0.074,0.054-0.164,0.255-0.164
		c0.235,0,0.417-0.02,0.563-0.057c0.327-0.072,0.418-0.365,0.472-0.826c0.073-0.66,0.073-1.891,0.073-3.324V138.5
		c0-2.371,0-2.811-0.019-3.305c-0.036-0.533-0.182-0.699-0.69-0.848c-0.127-0.035-0.399-0.053-0.637-0.053
		c-0.163,0-0.272-0.057-0.272-0.166c0-0.111,0.127-0.146,0.346-0.146c0.854,0,1.909,0.035,2.345,0.035
		c0.383,0,1.491-0.035,2.128-0.035c0.218,0,0.327,0.035,0.327,0.146c0,0.109-0.091,0.166-0.291,0.166
		c-0.127,0-0.272,0.018-0.454,0.053c-0.437,0.074-0.564,0.295-0.601,0.848c-0.036,0.494-0.036,1.062-0.036,3.434v0.33
		c0,0.092,0.055,0.109,0.109,0.109H119.078z"/>
	<path fill="#2A4273" d="M127.155,141.859c-0.091,0-0.108,0.02-0.146,0.111l-0.854,2.094c-0.163,0.385-0.236,0.771-0.236,0.955
		c0,0.275,0.146,0.441,0.637,0.441h0.236c0.199,0,0.236,0.072,0.236,0.164c0,0.129-0.091,0.166-0.255,0.166
		c-0.527,0-1.272-0.055-1.781-0.055c-0.164,0-1.019,0.055-1.854,0.055c-0.201,0-0.292-0.037-0.292-0.166
		c0-0.092,0.055-0.164,0.183-0.164c0.146,0,0.327-0.02,0.473-0.02c0.728-0.109,1-0.588,1.327-1.377l4.182-9.826
		c0.182-0.441,0.31-0.623,0.474-0.623c0.235,0,0.309,0.146,0.472,0.494c0.382,0.865,3.056,7.256,4.073,9.625
		c0.618,1.414,1.072,1.615,1.364,1.67c0.235,0.037,0.418,0.057,0.6,0.057c0.146,0,0.218,0.055,0.218,0.164
		c0,0.129-0.091,0.166-0.69,0.166c-0.563,0-1.728,0-3.073-0.037c-0.291-0.018-0.473-0.018-0.473-0.129
		c0-0.092,0.036-0.146,0.2-0.164c0.108-0.02,0.219-0.166,0.146-0.35l-1.236-3.141c-0.037-0.092-0.091-0.111-0.164-0.111H127.155z
		 M130.574,140.998c0.072,0,0.091-0.037,0.072-0.092l-1.509-3.969c-0.019-0.055-0.037-0.146-0.073-0.146
		c-0.055,0-0.072,0.092-0.091,0.146l-1.546,3.949c-0.036,0.074,0,0.111,0.055,0.111H130.574z"/>
	<path fill="#2A4273" d="M140.013,141.253c0,2.004,0,2.994,0.346,3.287c0.272,0.24,0.891,0.33,2.127,0.33
		c0.855,0,1.474-0.018,1.873-0.439c0.2-0.201,0.363-0.643,0.4-0.938c0.018-0.146,0.054-0.236,0.182-0.236
		c0.109,0,0.146,0.164,0.146,0.348s-0.109,1.34-0.236,1.799c-0.109,0.35-0.182,0.424-1.019,0.424c-1.146,0-2.072-0.02-2.872-0.057
		c-0.801-0.018-1.474-0.035-2.128-0.035c-0.182,0-0.527,0.018-0.909,0.018c-0.382,0.018-0.782,0.037-1.108,0.037
		c-0.201,0-0.31-0.055-0.31-0.166c0-0.074,0.055-0.164,0.255-0.164c0.236,0,0.418-0.02,0.563-0.057
		c0.327-0.072,0.418-0.365,0.473-0.826c0.073-0.66,0.073-1.891,0.073-3.324V138.5c0-2.371,0-2.811-0.02-3.305
		c-0.036-0.533-0.182-0.699-0.69-0.848c-0.127-0.035-0.327-0.053-0.527-0.053c-0.182,0-0.272-0.057-0.272-0.166
		c0-0.111,0.109-0.146,0.346-0.146c0.745,0,1.764,0.035,2.199,0.035c0.383,0,1.691-0.035,2.31-0.035
		c0.236,0,0.346,0.035,0.346,0.146c0,0.109-0.091,0.166-0.291,0.166c-0.182,0-0.437,0.018-0.618,0.053
		c-0.437,0.074-0.563,0.295-0.601,0.848c-0.036,0.494-0.036,0.934-0.036,3.305V141.253z"/>
	<path fill="#2A4273" d="M149.961,141.253c0,2.004,0,2.994,0.346,3.287c0.272,0.24,0.891,0.33,2.127,0.33
		c0.854,0,1.473-0.018,1.873-0.439c0.2-0.201,0.363-0.643,0.399-0.938c0.019-0.146,0.055-0.236,0.183-0.236
		c0.109,0,0.146,0.164,0.146,0.348s-0.109,1.34-0.236,1.799c-0.109,0.35-0.183,0.424-1.019,0.424c-1.146,0-2.073-0.02-2.873-0.057
		c-0.8-0.018-1.473-0.035-2.127-0.035c-0.182,0-0.527,0.018-0.909,0.018c-0.382,0.018-0.782,0.037-1.109,0.037
		c-0.2,0-0.309-0.055-0.309-0.166c0-0.074,0.054-0.164,0.255-0.164c0.235,0,0.417-0.02,0.563-0.057
		c0.327-0.072,0.418-0.365,0.472-0.826c0.073-0.66,0.073-1.891,0.073-3.324V138.5c0-2.371,0-2.811-0.019-3.305
		c-0.036-0.533-0.182-0.699-0.69-0.848c-0.127-0.035-0.327-0.053-0.527-0.053c-0.182,0-0.272-0.057-0.272-0.166
		c0-0.111,0.108-0.146,0.346-0.146c0.745,0,1.764,0.035,2.199,0.035c0.382,0,1.691-0.035,2.31-0.035
		c0.236,0,0.346,0.035,0.346,0.146c0,0.109-0.091,0.166-0.291,0.166c-0.182,0-0.437,0.018-0.618,0.053
		c-0.437,0.074-0.564,0.295-0.601,0.848c-0.036,0.494-0.036,0.934-0.036,3.305V141.253z"/>
	<path fill="#2A4273" d="M157.764,138.5c0-2.371,0-2.811-0.019-3.305c-0.036-0.533-0.182-0.699-0.69-0.848
		c-0.128-0.035-0.4-0.053-0.637-0.053c-0.163,0-0.272-0.057-0.272-0.166c0-0.111,0.127-0.146,0.363-0.146
		c0.837,0,1.855,0.035,2.31,0.035c0.509,0,4.055,0.02,4.363,0c0.291-0.018,0.546-0.072,0.673-0.092
		c0.091-0.018,0.182-0.072,0.255-0.072c0.091,0,0.109,0.072,0.109,0.146c0,0.109-0.092,0.295-0.128,1.01
		c-0.019,0.166-0.055,0.846-0.091,1.029c-0.019,0.072-0.055,0.258-0.182,0.258c-0.109,0-0.127-0.074-0.127-0.203
		c0-0.111-0.019-0.387-0.109-0.568c-0.128-0.277-0.255-0.498-1.055-0.57c-0.272-0.037-2.182-0.074-2.51-0.074
		c-0.072,0-0.108,0.057-0.108,0.146v3.859c0,0.09,0.018,0.164,0.108,0.164c0.364,0,2.438,0,2.801-0.037
		c0.382-0.037,0.618-0.074,0.764-0.238c0.127-0.109,0.182-0.203,0.255-0.203c0.072,0,0.127,0.074,0.127,0.166
		s-0.036,0.35-0.127,1.139c-0.037,0.312-0.073,0.938-0.073,1.047c0,0.127-0.018,0.348-0.163,0.348c-0.109,0-0.146-0.053-0.146-0.127
		c-0.018-0.166-0.018-0.367-0.054-0.57c-0.091-0.311-0.291-0.551-0.891-0.605c-0.292-0.037-2.109-0.072-2.51-0.072
		c-0.073,0-0.091,0.072-0.091,0.164v1.248c0,0.533-0.019,1.855,0,2.314c0.036,1.066,0.527,1.305,2.164,1.305
		c0.418,0,1.091-0.018,1.509-0.203c0.399-0.184,0.581-0.514,0.691-1.156c0.036-0.166,0.072-0.238,0.182-0.238
		c0.127,0,0.145,0.201,0.145,0.367c0,0.348-0.127,1.414-0.218,1.725c-0.108,0.406-0.255,0.406-0.854,0.406
		c-1.2,0-2.163-0.02-2.945-0.057c-0.782-0.018-1.382-0.035-1.854-0.035c-0.182,0-0.527,0.018-0.909,0.018
		c-0.382,0.018-0.782,0.037-1.109,0.037c-0.2,0-0.31-0.055-0.31-0.166c0-0.074,0.055-0.164,0.255-0.164
		c0.236,0,0.418-0.02,0.564-0.057c0.326-0.072,0.417-0.365,0.472-0.826c0.073-0.66,0.073-1.891,0.073-3.324V138.5z"/>
	<path fill="#2A4273" d="M169.148,143.66c0.036,1.211,0.237,1.58,0.546,1.689c0.272,0.092,0.582,0.111,0.837,0.111
		c0.182,0,0.272,0.072,0.272,0.164c0,0.129-0.146,0.166-0.364,0.166c-1.036,0-1.782-0.055-2.072-0.055
		c-0.146,0-0.909,0.055-1.728,0.055c-0.218,0-0.364-0.02-0.364-0.166c0-0.092,0.109-0.164,0.255-0.164
		c0.219,0,0.51-0.02,0.728-0.074c0.418-0.111,0.473-0.533,0.491-1.893l0.146-9.256c0-0.312,0.108-0.531,0.272-0.531
		c0.2,0,0.418,0.238,0.691,0.512c0.199,0.203,2.6,2.684,4.927,4.979c1.091,1.084,3.219,3.287,3.455,3.508h0.072l-0.163-6.941
		c-0.019-0.955-0.164-1.23-0.546-1.377c-0.236-0.092-0.618-0.092-0.836-0.092c-0.2,0-0.255-0.076-0.255-0.166
		c0-0.129,0.163-0.146,0.4-0.146c0.836,0,1.69,0.035,2.036,0.035c0.182,0,0.782-0.035,1.563-0.035c0.218,0,0.364,0.018,0.364,0.146
		c0,0.09-0.091,0.166-0.273,0.166c-0.163,0-0.291,0-0.491,0.053c-0.436,0.129-0.563,0.404-0.582,1.287l-0.182,9.844
		c0,0.35-0.127,0.494-0.254,0.494c-0.273,0-0.491-0.164-0.655-0.33c-0.999-0.936-3-2.863-4.673-4.498
		c-1.745-1.689-3.436-3.582-3.745-3.857h-0.055L169.148,143.66z"/>
	<path fill="#2A4273" d="M193.117,144.742c0,0.424,0,0.443-0.2,0.553c-1.072,0.533-2.654,0.697-3.91,0.697
		c-3.927,0-7.4-1.801-7.4-6.115c0-2.498,1.328-4.242,2.801-5.105c1.527-0.9,2.964-1.01,4.31-1.01c1.108,0,2.509,0.184,2.836,0.256
		c0.328,0.057,0.892,0.148,1.272,0.166c0.183,0.018,0.219,0.074,0.219,0.184c0,0.184-0.109,0.607-0.109,2.57
		c0,0.24-0.091,0.35-0.219,0.35c-0.108,0-0.145-0.074-0.162-0.201c-0.037-0.35-0.128-0.846-0.547-1.287
		c-0.472-0.494-1.672-1.193-3.472-1.193c-0.873,0-1.982,0.02-3.092,0.92c-0.891,0.732-1.473,1.891-1.473,3.801
		c0,3.361,2.146,5.803,5.563,5.803c0.419,0,0.746,0,1.128-0.164c0.236-0.111,0.31-0.275,0.31-0.553v-1.432
		c0-0.771,0-1.359-0.02-1.836c-0.018-0.533-0.182-0.697-0.689-0.846c-0.128-0.035-0.401-0.055-0.619-0.055
		c-0.146,0-0.254-0.074-0.254-0.166c0-0.129,0.127-0.146,0.346-0.146c0.835,0,1.981,0.037,2.453,0.037
		c0.51,0,1.347-0.037,1.873-0.037c0.219,0,0.328,0.018,0.328,0.146c0,0.092-0.092,0.166-0.2,0.166c-0.128,0-0.255,0.02-0.437,0.055
		c-0.437,0.074-0.6,0.295-0.618,0.846c-0.018,0.477-0.018,1.102-0.018,1.873V144.742z"/>
	<path fill="#2A4273" d="M197.502,138.5c0-2.371,0-2.811-0.018-3.305c-0.036-0.533-0.182-0.699-0.691-0.848
		c-0.126-0.035-0.399-0.053-0.636-0.053c-0.164,0-0.273-0.057-0.273-0.166c0-0.111,0.128-0.146,0.364-0.146
		c0.836,0,1.854,0.035,2.309,0.035c0.51,0,4.055,0.02,4.364,0c0.291-0.018,0.545-0.072,0.673-0.092
		c0.091-0.018,0.182-0.072,0.254-0.072c0.092,0,0.109,0.072,0.109,0.146c0,0.109-0.091,0.295-0.127,1.01
		c-0.019,0.166-0.055,0.846-0.091,1.029c-0.018,0.072-0.055,0.258-0.182,0.258c-0.109,0-0.128-0.074-0.128-0.203
		c0-0.111-0.018-0.387-0.109-0.568c-0.126-0.277-0.254-0.498-1.055-0.57c-0.271-0.037-2.182-0.074-2.509-0.074
		c-0.072,0-0.109,0.057-0.109,0.146v3.859c0,0.09,0.02,0.164,0.109,0.164c0.364,0,2.437,0,2.801-0.037
		c0.381-0.037,0.617-0.074,0.763-0.238c0.128-0.109,0.182-0.203,0.255-0.203s0.127,0.074,0.127,0.166s-0.036,0.35-0.127,1.139
		c-0.037,0.312-0.073,0.938-0.073,1.047c0,0.127-0.018,0.348-0.163,0.348c-0.108,0-0.145-0.053-0.145-0.127
		c-0.02-0.166-0.02-0.367-0.056-0.57c-0.09-0.311-0.29-0.551-0.891-0.605c-0.29-0.037-2.109-0.072-2.509-0.072
		c-0.072,0-0.092,0.072-0.092,0.164v1.248c0,0.533-0.018,1.855,0,2.314c0.037,1.066,0.527,1.305,2.164,1.305
		c0.418,0,1.091-0.018,1.509-0.203c0.401-0.184,0.583-0.514,0.691-1.156c0.036-0.166,0.073-0.238,0.182-0.238
		c0.128,0,0.146,0.201,0.146,0.367c0,0.348-0.127,1.414-0.218,1.725c-0.109,0.406-0.255,0.406-0.854,0.406
		c-1.2,0-2.164-0.02-2.946-0.057c-0.781-0.018-1.382-0.035-1.854-0.035c-0.183,0-0.527,0.018-0.909,0.018
		c-0.383,0.018-0.782,0.037-1.11,0.037c-0.199,0-0.308-0.055-0.308-0.166c0-0.074,0.054-0.164,0.254-0.164
		c0.235,0,0.418-0.02,0.563-0.057c0.327-0.072,0.419-0.365,0.473-0.826c0.072-0.66,0.072-1.891,0.072-3.324V138.5z"/>
	<path fill="#2A4273" d="M236.84,134.937l-2.383,0.055c-0.927,0.018-1.309,0.127-1.546,0.477c-0.162,0.221-0.235,0.424-0.272,0.533
		c-0.036,0.127-0.073,0.203-0.182,0.203c-0.109,0-0.146-0.094-0.146-0.258c0-0.258,0.31-1.764,0.346-1.893
		c0.036-0.201,0.092-0.293,0.182-0.293c0.128,0,0.291,0.127,0.691,0.184c0.473,0.055,1.072,0.072,1.6,0.072h6.491
		c0.51,0,0.854-0.035,1.091-0.072c0.254-0.037,0.382-0.074,0.436-0.074c0.11,0,0.128,0.094,0.128,0.33
		c0,0.332-0.036,1.488-0.036,1.893c-0.018,0.164-0.054,0.256-0.146,0.256c-0.128,0-0.164-0.072-0.182-0.311l-0.019-0.166
		c-0.036-0.404-0.455-0.881-1.891-0.898l-2.019-0.037v6.316c0,1.434,0.019,2.664,0.091,3.344c0.056,0.441,0.146,0.734,0.619,0.807
		c0.218,0.037,0.581,0.057,0.818,0.057c0.182,0,0.254,0.09,0.254,0.164c0,0.111-0.128,0.166-0.31,0.166
		c-1.055,0-2.127-0.055-2.581-0.055c-0.363,0-1.455,0.055-2.091,0.055c-0.2,0-0.31-0.055-0.31-0.166
		c0-0.074,0.054-0.164,0.254-0.164c0.237,0,0.437-0.02,0.564-0.057c0.326-0.072,0.418-0.365,0.473-0.826
		c0.073-0.66,0.073-1.891,0.073-3.324V134.937z"/>
	<path fill="#2A4273" d="M244.388,139.876c0-2.664,1.854-6.115,6.709-6.115c4.036,0,6.546,2.258,6.546,5.84
		c0,3.58-2.583,6.391-6.71,6.391C246.278,145.992,244.388,142.65,244.388,139.876z M255.261,140.169
		c0-3.451-2.055-5.582-4.637-5.582c-1.782,0-3.873,0.955-3.873,4.811c0,3.215,1.818,5.75,4.837,5.75
		C252.715,145.148,255.261,144.615,255.261,140.169z"/>
	<path fill="#2A4273" d="M264.829,138.847c0-3.141,2.055-7.199,7.509-7.199c4.528,0,7.347,2.664,7.347,6.869
		c0,4.207-2.91,7.531-7.528,7.531C266.938,146.048,264.829,142.099,264.829,138.847z M277.138,139.197
		c0-4.113-2.345-6.666-5.327-6.666c-2.091,0-4.472,1.176-4.472,5.748c0,3.82,2.091,6.85,5.582,6.85
		C274.193,145.128,277.138,144.505,277.138,139.197z"/>
	<path fill="#2A4273" d="M283.216,138.5c0-2.371,0-2.811-0.018-3.305c-0.037-0.533-0.182-0.699-0.691-0.848
		c-0.127-0.035-0.4-0.053-0.637-0.053c-0.164,0-0.273-0.057-0.273-0.166c0-0.111,0.128-0.146,0.365-0.146
		c0.835,0,1.854,0.035,2.309,0.035c0.654,0,1.928-0.035,2.654-0.035c2,0,2.728,0.66,2.982,0.881c0.346,0.332,0.8,1.029,0.8,1.873
		c0,2.203-1.746,3.783-4.019,3.783c-0.072,0-0.4,0-0.473-0.02c-0.091,0-0.199-0.053-0.199-0.164c0-0.129,0.182-0.201,0.527-0.201
		c0.891,0,2.145-0.938,2.145-2.535c0-0.514-0.055-1.543-0.945-2.314c-0.582-0.514-1.236-0.588-1.601-0.588
		c-0.235,0-0.545,0.02-0.69,0.074c-0.091,0.037-0.127,0.127-0.127,0.295v6.188c0,1.434,0,2.664,0.072,3.344
		c0.055,0.441,0.146,0.734,0.619,0.807c0.235,0.037,0.581,0.057,0.817,0.057c0.182,0,0.255,0.09,0.255,0.164
		c0,0.111-0.128,0.166-0.291,0.166c-1.073,0-2.201-0.055-2.618-0.055c-0.364,0-1.383,0.055-2.019,0.055
		c-0.199,0-0.309-0.055-0.309-0.166c0-0.074,0.054-0.164,0.254-0.164c0.236,0,0.419-0.02,0.564-0.057
		c0.326-0.072,0.418-0.365,0.472-0.826c0.073-0.66,0.073-1.891,0.073-3.324V138.5z"/>
	<path fill="#2A4273" d="M293.964,138.5c0-2.371,0-2.811-0.018-3.305c-0.036-0.533-0.182-0.699-0.691-0.848
		c-0.127-0.035-0.399-0.053-0.637-0.053c-0.164,0-0.272-0.057-0.272-0.166c0-0.111,0.128-0.146,0.364-0.146
		c0.836,0,1.854,0.035,2.309,0.035c0.655,0,1.928-0.035,2.654-0.035c2,0,2.729,0.66,2.982,0.881
		c0.346,0.332,0.801,1.029,0.801,1.873c0,2.203-1.746,3.783-4.019,3.783c-0.073,0-0.401,0-0.474-0.02
		c-0.09,0-0.199-0.053-0.199-0.164c0-0.129,0.182-0.201,0.527-0.201c0.891,0,2.145-0.938,2.145-2.535
		c0-0.514-0.054-1.543-0.944-2.314c-0.583-0.514-1.236-0.588-1.601-0.588c-0.236,0-0.545,0.02-0.69,0.074
		c-0.092,0.037-0.128,0.127-0.128,0.295v6.188c0,1.434,0,2.664,0.072,3.344c0.056,0.441,0.146,0.734,0.619,0.807
		c0.235,0.037,0.581,0.057,0.818,0.057c0.182,0,0.254,0.09,0.254,0.164c0,0.111-0.128,0.166-0.291,0.166
		c-1.073,0-2.2-0.055-2.617-0.055c-0.365,0-1.383,0.055-2.02,0.055c-0.199,0-0.309-0.055-0.309-0.166
		c0-0.074,0.055-0.164,0.255-0.164c0.235,0,0.418-0.02,0.563-0.057c0.327-0.072,0.418-0.365,0.473-0.826
		c0.072-0.66,0.072-1.891,0.072-3.324V138.5z"/>
	<path fill="#2A4273" d="M302.968,139.876c0-2.664,1.854-6.115,6.709-6.115c4.035,0,6.546,2.258,6.546,5.84
		c0,3.58-2.583,6.391-6.71,6.391C304.857,145.992,302.968,142.65,302.968,139.876z M313.84,140.169c0-3.451-2.054-5.582-4.636-5.582
		c-1.782,0-3.873,0.955-3.873,4.811c0,3.215,1.817,5.75,4.836,5.75C311.295,145.148,313.84,144.615,313.84,140.169z"/>
	<path fill="#2A4273" d="M319.662,138.5c0-2.371,0-2.811-0.018-3.305c-0.036-0.533-0.182-0.699-0.691-0.848
		c-0.127-0.035-0.399-0.053-0.637-0.053c-0.164,0-0.272-0.057-0.272-0.166c0-0.111,0.127-0.146,0.364-0.146
		c0.835,0,1.854,0.035,2.182,0.035c0.545,0,1.999-0.035,2.49-0.035c1.019,0,2.183,0.092,3.036,0.66
		c0.455,0.312,1.128,1.104,1.128,2.148c0,1.158-0.654,2.186-2.219,3.453c1.419,1.764,2.547,3.178,3.51,4.15
		c0.891,0.9,1.454,0.975,1.709,1.027c0.164,0.039,0.255,0.039,0.382,0.039c0.128,0,0.2,0.09,0.2,0.164
		c0,0.129-0.108,0.166-0.31,0.166h-1.526c-0.891,0-1.328-0.092-1.746-0.312c-0.69-0.35-1.29-1.084-2.183-2.297
		c-0.636-0.844-1.309-1.891-1.508-2.131c-0.092-0.09-0.183-0.109-0.292-0.109l-1.436-0.035c-0.072,0-0.128,0.035-0.128,0.127v0.221
		c0,1.451,0.02,2.664,0.092,3.324c0.054,0.461,0.127,0.754,0.617,0.826c0.237,0.037,0.583,0.057,0.782,0.057
		c0.128,0,0.2,0.09,0.2,0.164c0,0.111-0.128,0.166-0.327,0.166c-0.928,0-2.255-0.055-2.491-0.055c-0.31,0-1.328,0.055-1.964,0.055
		c-0.199,0-0.309-0.055-0.309-0.166c0-0.074,0.054-0.164,0.255-0.164c0.236,0,0.418-0.02,0.563-0.057
		c0.327-0.072,0.418-0.365,0.472-0.826c0.073-0.66,0.073-1.891,0.073-3.324V138.5z M321.698,139.71c0,0.166,0.037,0.221,0.146,0.277
		c0.346,0.109,0.818,0.146,1.219,0.146c0.637,0,0.854-0.057,1.128-0.258c0.49-0.35,1.035-1.029,1.035-2.314
		c0-2.203-1.49-2.773-2.436-2.773c-0.4,0-0.782,0.02-0.946,0.057c-0.108,0.035-0.146,0.092-0.146,0.221V139.71z"/>
	<path fill="#2A4273" d="M334.176,134.937l-2.383,0.055c-0.927,0.018-1.309,0.127-1.546,0.477c-0.162,0.221-0.235,0.424-0.272,0.533
		c-0.036,0.127-0.073,0.203-0.182,0.203c-0.109,0-0.146-0.094-0.146-0.258c0-0.258,0.31-1.764,0.346-1.893
		c0.036-0.201,0.092-0.293,0.182-0.293c0.128,0,0.291,0.127,0.691,0.184c0.473,0.055,1.072,0.072,1.6,0.072h6.491
		c0.51,0,0.854-0.035,1.091-0.072c0.254-0.037,0.382-0.074,0.436-0.074c0.11,0,0.128,0.094,0.128,0.33
		c0,0.332-0.036,1.488-0.036,1.893c-0.018,0.164-0.054,0.256-0.146,0.256c-0.128,0-0.164-0.072-0.182-0.311l-0.019-0.166
		c-0.036-0.404-0.455-0.881-1.891-0.898l-2.019-0.037v6.316c0,1.434,0.019,2.664,0.091,3.344c0.056,0.441,0.146,0.734,0.619,0.807
		c0.218,0.037,0.581,0.057,0.818,0.057c0.182,0,0.254,0.09,0.254,0.164c0,0.111-0.128,0.166-0.31,0.166
		c-1.055,0-2.127-0.055-2.581-0.055c-0.363,0-1.455,0.055-2.091,0.055c-0.2,0-0.31-0.055-0.31-0.166
		c0-0.074,0.054-0.164,0.254-0.164c0.237,0,0.437-0.02,0.564-0.057c0.326-0.072,0.418-0.365,0.473-0.826
		c0.073-0.66,0.073-1.891,0.073-3.324V134.937z"/>
	<path fill="#2A4273" d="M342.778,138.5c0-2.371,0.018-2.811-0.019-3.305c-0.036-0.553-0.182-0.699-0.69-0.848
		c-0.128-0.035-0.4-0.053-0.619-0.053c-0.182,0-0.272-0.057-0.272-0.166c0-0.111,0.108-0.146,0.346-0.146
		c0.854,0,1.928,0.035,2.399,0.035c0.4,0,1.474-0.035,2.055-0.035c0.236,0,0.346,0.035,0.346,0.146c0,0.109-0.09,0.166-0.254,0.166
		c-0.182,0-0.273,0.018-0.473,0.053c-0.418,0.074-0.546,0.295-0.582,0.848c-0.037,0.494-0.037,0.934-0.037,3.305v2.186
		c0,2.275,0.437,3.158,1.219,3.783c0.709,0.57,1.473,0.623,2.019,0.623c0.69,0,1.509-0.201,2.146-0.826
		c0.891-0.844,0.927-2.203,0.927-3.801V138.5c0-2.371-0.019-2.811-0.036-3.305c-0.036-0.533-0.164-0.699-0.673-0.848
		c-0.128-0.035-0.399-0.053-0.582-0.053c-0.182,0-0.272-0.057-0.272-0.166c0-0.111,0.109-0.146,0.327-0.146
		c0.818,0,1.892,0.035,1.909,0.035c0.182,0,1.255-0.035,1.873-0.035c0.218,0,0.326,0.035,0.326,0.146
		c0,0.109-0.09,0.166-0.271,0.166s-0.273,0.018-0.474,0.053c-0.436,0.074-0.545,0.295-0.581,0.848
		c-0.019,0.494-0.036,0.934-0.036,3.305v1.67c0,1.746-0.182,3.582-1.528,4.701c-1.127,0.957-2.345,1.121-3.381,1.121
		c-0.837,0-2.491-0.037-3.655-1.064c-0.817-0.717-1.454-1.873-1.454-4.131V138.5z"/>
	<path fill="#2A4273" d="M358.2,143.66c0.036,1.211,0.235,1.58,0.545,1.689c0.273,0.092,0.582,0.111,0.837,0.111
		c0.182,0,0.272,0.072,0.272,0.164c0,0.129-0.146,0.166-0.364,0.166c-1.036,0-1.781-0.055-2.073-0.055
		c-0.145,0-0.908,0.055-1.727,0.055c-0.219,0-0.363-0.02-0.363-0.166c0-0.092,0.108-0.164,0.254-0.164
		c0.219,0,0.51-0.02,0.728-0.074c0.419-0.111,0.473-0.533,0.491-1.893l0.146-9.256c0-0.312,0.108-0.531,0.272-0.531
		c0.199,0,0.419,0.238,0.69,0.512c0.2,0.203,2.601,2.684,4.928,4.979c1.091,1.084,3.218,3.287,3.455,3.508h0.072l-0.164-6.941
		c-0.018-0.955-0.163-1.23-0.545-1.377c-0.236-0.092-0.618-0.092-0.837-0.092c-0.199,0-0.254-0.076-0.254-0.166
		c0-0.129,0.164-0.146,0.399-0.146c0.837,0,1.691,0.035,2.037,0.035c0.182,0,0.781-0.035,1.564-0.035
		c0.218,0,0.363,0.018,0.363,0.146c0,0.09-0.092,0.166-0.273,0.166c-0.164,0-0.29,0-0.491,0.053
		c-0.436,0.129-0.563,0.404-0.581,1.287l-0.182,9.844c0,0.35-0.128,0.494-0.255,0.494c-0.272,0-0.491-0.164-0.654-0.33
		c-1.001-0.936-3-2.863-4.674-4.498c-1.744-1.689-3.436-3.582-3.745-3.857h-0.055L358.2,143.66z"/>
	<path fill="#2A4273" d="M372.404,138.5c0-2.371,0-2.811-0.018-3.305c-0.036-0.533-0.2-0.719-0.546-0.828
		c-0.182-0.055-0.382-0.072-0.581-0.072c-0.164,0-0.255-0.037-0.255-0.186c0-0.092,0.127-0.127,0.381-0.127
		c0.601,0,1.691,0.035,2.146,0.035c0.4,0,1.437-0.035,2.054-0.035c0.2,0,0.328,0.035,0.328,0.127c0,0.148-0.091,0.186-0.254,0.186
		c-0.164,0-0.292,0.018-0.474,0.053c-0.436,0.074-0.563,0.295-0.6,0.848c-0.037,0.494-0.037,0.934-0.037,3.305v2.754
		c0,1.506,0,2.756,0.073,3.416c0.055,0.422,0.164,0.662,0.636,0.734c0.219,0.037,0.583,0.057,0.818,0.057
		c0.183,0,0.256,0.09,0.256,0.164c0,0.111-0.128,0.166-0.31,0.166c-1.055,0-2.146-0.055-2.582-0.055
		c-0.364,0-1.455,0.055-2.092,0.055c-0.199,0-0.308-0.055-0.308-0.166c0-0.074,0.054-0.164,0.254-0.164
		c0.235,0,0.418-0.02,0.563-0.057c0.327-0.072,0.419-0.293,0.473-0.752c0.072-0.643,0.072-1.893,0.072-3.398V138.5z"/>
	<path fill="#2A4273" d="M381.843,134.937l-2.383,0.055c-0.927,0.018-1.309,0.127-1.545,0.477c-0.163,0.221-0.236,0.424-0.273,0.533
		c-0.036,0.127-0.072,0.203-0.182,0.203s-0.146-0.094-0.146-0.258c0-0.258,0.31-1.764,0.346-1.893
		c0.036-0.201,0.092-0.293,0.182-0.293c0.128,0,0.291,0.127,0.691,0.184c0.473,0.055,1.072,0.072,1.6,0.072h6.491
		c0.51,0,0.854-0.035,1.091-0.072c0.255-0.037,0.382-0.074,0.437-0.074c0.109,0,0.127,0.094,0.127,0.33
		c0,0.332-0.036,1.488-0.036,1.893c-0.018,0.164-0.054,0.256-0.146,0.256c-0.127,0-0.164-0.072-0.182-0.311l-0.019-0.166
		c-0.036-0.404-0.454-0.881-1.89-0.898l-2.02-0.037v6.316c0,1.434,0.019,2.664,0.092,3.344c0.055,0.441,0.145,0.734,0.618,0.807
		c0.218,0.037,0.581,0.057,0.818,0.057c0.182,0,0.254,0.09,0.254,0.164c0,0.111-0.128,0.166-0.31,0.166
		c-1.055,0-2.127-0.055-2.581-0.055c-0.363,0-1.454,0.055-2.091,0.055c-0.2,0-0.31-0.055-0.31-0.166
		c0-0.074,0.054-0.164,0.255-0.164c0.236,0,0.436-0.02,0.563-0.057c0.327-0.072,0.418-0.365,0.474-0.826
		c0.072-0.66,0.072-1.891,0.072-3.324V134.937z"/>
	<path fill="#2A4273" d="M392.864,141.73c0-0.844-0.146-1.174-0.363-1.633c-0.109-0.238-2.291-3.672-2.854-4.5
		c-0.399-0.57-0.728-0.936-1.036-1.102c-0.2-0.109-0.474-0.201-0.673-0.201c-0.128,0-0.236-0.057-0.236-0.166
		c0-0.111,0.108-0.146,0.31-0.146c0.271,0,1.472,0.035,1.999,0.035c0.346,0,1.091-0.035,1.818-0.035
		c0.146,0,0.237,0.035,0.237,0.146c0,0.129-0.11,0.129-0.365,0.201c-0.126,0.037-0.218,0.111-0.218,0.238
		c0,0.129,0.073,0.312,0.2,0.533c0.291,0.477,2.382,4.133,2.654,4.574c0.201-0.367,2.146-3.711,2.383-4.188
		c0.163-0.35,0.235-0.625,0.235-0.826c0-0.146-0.072-0.295-0.346-0.35c-0.146-0.037-0.29-0.055-0.29-0.184
		c0-0.111,0.091-0.146,0.272-0.146c0.527,0,1.091,0.035,1.563,0.035c0.346,0,1.4-0.035,1.71-0.035c0.182,0,0.29,0.035,0.29,0.127
		c0,0.109-0.127,0.186-0.309,0.186c-0.163,0-0.455,0.072-0.69,0.182c-0.346,0.166-0.491,0.312-0.837,0.736
		c-0.527,0.623-2.818,4.334-3.109,4.994c-0.236,0.57-0.2,1.047-0.2,1.562v1.248c0,0.258,0,0.9,0.036,1.561
		c0.037,0.461,0.182,0.754,0.655,0.826c0.235,0.037,0.581,0.057,0.8,0.057c0.183,0,0.272,0.09,0.272,0.164
		c0,0.111-0.128,0.166-0.346,0.166c-0.999,0-2.071-0.055-2.509-0.055c-0.399,0-1.473,0.055-2.073,0.055
		c-0.218,0-0.345-0.037-0.345-0.166c0-0.074,0.073-0.164,0.255-0.164c0.218,0,0.418-0.02,0.563-0.057
		c0.327-0.072,0.455-0.365,0.491-0.826c0.054-0.66,0.054-1.303,0.054-1.561V141.73z"/>
</g>
<polyline fill="#00B5CB" points="225.462,139.916 213.403,146.716 213.403,133.117 225.462,139.916 "/>
<polyline fill="#00B5CB" points="344.802,41.324 317.912,56.488 317.912,26.154 344.802,41.324 "/>
</svg>
